<?xml version="1.0" encoding="UTF-8" standalone="no"?>
<!DOCTYPE svg PUBLIC "-//W3C//DTD SVG 1.1//EN"
 "http://www.w3.org/Graphics/SVG/1.1/DTD/svg11.dtd">
<!-- Generated by graphviz version 2.38.0 (20140413.2041)
 -->
<!-- Title: Control&#45;flow graph for function &#39;main(argc, **argv)&#39;. Pages: 1 -->
<svg width="398pt" height="398pt"
 viewBox="0.00 0.00 398.00 398.00" xmlns="http://www.w3.org/2000/svg" xmlns:xlink="http://www.w3.org/1999/xlink">
<g id="graph0" class="graph" transform="scale(1 1) rotate(0) translate(4 394)">
<title>Control&#45;flow graph for function &#39;main(argc, **argv)&#39;.</title>
<polygon fill="white" stroke="none" points="-4,4 -4,-394 394,-394 394,4 -4,4"/>
<text text-anchor="middle" x="195" y="-7.8" font-family="Times,serif" font-size="14.00">Control&#45;flow graph for function &#39;main(argc, **argv)&#39;.</text>
<!-- Node0x3344b70 -->
<g id="node1" class="node"><title>Node0x3344b70</title>
<polygon fill="none" stroke="black" points="165.5,-336.5 165.5,-389.5 224.5,-389.5 224.5,-336.5 165.5,-336.5"/>
<text text-anchor="start" x="173.5" y="-374.3" font-family="Times,serif" font-size="14.00">entry:</text>
<text text-anchor="start" x="173.5" y="-359.3" font-family="Times,serif" font-size="14.00"> argc</text>
<text text-anchor="start" x="173.5" y="-344.3" font-family="Times,serif" font-size="14.00"> argv</text>
</g>
<!-- Node0x333f4a0 -->
<g id="node2" class="node"><title>Node0x333f4a0</title>
<polygon fill="none" stroke="black" points="137.5,-96.5 137.5,-299.5 252.5,-299.5 252.5,-96.5 137.5,-96.5"/>
<text text-anchor="start" x="145.5" y="-284.3" font-family="Times,serif" font-size="14.00">0x80483fb:</text>
<text text-anchor="start" x="145.5" y="-269.3" font-family="Times,serif" font-size="14.00"> putchar(65)</text>
<text text-anchor="start" x="145.5" y="-254.3" font-family="Times,serif" font-size="14.00"> putchar(105)</text>
<text text-anchor="start" x="145.5" y="-239.3" font-family="Times,serif" font-size="14.00"> putchar(110)</text>
<text text-anchor="start" x="145.5" y="-224.3" font-family="Times,serif" font-size="14.00"> putchar(39)</text>
<text text-anchor="start" x="145.5" y="-209.3" font-family="Times,serif" font-size="14.00"> putchar(116)</text>
<text text-anchor="start" x="145.5" y="-194.3" font-family="Times,serif" font-size="14.00"> putchar(32)</text>
<text text-anchor="start" x="145.5" y="-179.3" font-family="Times,serif" font-size="14.00"> putchar(72)</text>
<text text-anchor="start" x="145.5" y="-164.3" font-family="Times,serif" font-size="14.00"> putchar(101)</text>
<text text-anchor="start" x="145.5" y="-149.3" font-family="Times,serif" font-size="14.00"> putchar(114)</text>
<text text-anchor="start" x="145.5" y="-134.3" font-family="Times,serif" font-size="14.00"> putchar(101)</text>
<text text-anchor="start" x="145.5" y="-119.3" font-family="Times,serif" font-size="14.00"> putchar(10)</text>
<text text-anchor="start" x="145.5" y="-104.3" font-family="Times,serif" font-size="14.00"> return 0</text>
</g>
<!-- Node0x3344b70&#45;&gt;Node0x333f4a0 -->
<g id="edge1" class="edge"><title>Node0x3344b70&#45;&gt;Node0x333f4a0</title>
<path fill="none" stroke="black" d="M195,-336.172C195,-328.444 195,-319.436 195,-309.797"/>
<polygon fill="black" stroke="black" points="198.5,-309.552 195,-299.552 191.5,-309.552 198.5,-309.552"/>
</g>
<!-- Node0x3342930 -->
<g id="node3" class="node"><title>Node0x3342930</title>
<polygon fill="none" stroke="black" points="168,-23.5 168,-59.5 222,-59.5 222,-23.5 168,-23.5"/>
<text text-anchor="start" x="176" y="-37.8" font-family="Times,serif" font-size="14.00">exit:</text>
</g>
<!-- Node0x333f4a0&#45;&gt;Node0x3342930 -->
<g id="edge2" class="edge"><title>Node0x333f4a0&#45;&gt;Node0x3342930</title>
<path fill="none" stroke="black" d="M195,-96.103C195,-86.6073 195,-77.6391 195,-69.853"/>
<polygon fill="black" stroke="black" points="198.5,-69.7012 195,-59.7012 191.5,-69.7013 198.5,-69.7012"/>
</g>
</g>
</svg>
